{
  "accessors": [
    {
      "bufferView": 0,
      "componentType": 5126,
      "count": 610,
      "max": [
        33.22105026245117,
        183.6683349609375,
        1.4427036046981812
      ],
      "min": [
        -1.961401104927063,
        150.45120239257813,
        -31.76060676574707
      ],
      "name": "positions",
      "type": "VEC3"
    },
    {
      "bufferView": 1,
      "componentType": 5125,
      "count": 3000,
      "name": "pos_index",
      "type": "SCALAR"
    },
    {
      "bufferView": 2,
      "componentType": 5126,
      "count": 610,
      "name": "normals",
      "type": "VEC3"
    },
    {
      "bufferView": 3,
      "componentType": 5126,
      "count": 610,
      "name": "uvs",
      "type": "VEC2"
    },
    {
      "bufferView": 4,
      "componentType": 5126,
      "count": 642,
      "max": [
        33.13641357421875,
        160.86700439453125,
        23.526691436767578
      ],
      "min": [
        -1.9762611389160156,
        127.68522644042969,
        -9.668478012084961
      ],
      "name": "positions",
      "type": "VEC3"
    },
    {
      "bufferView": 5,
      "componentType": 5125,
      "count": 3000,
      "name": "pos_index",
      "type": "SCALAR"
    },
    {
      "bufferView": 6,
      "componentType": 5126,
      "count": 642,
      "name": "normals",
      "type": "VEC3"
    },
    {
      "bufferView": 7,
      "componentType": 5126,
      "count": 642,
      "name": "uvs",
      "type": "VEC2"
    },
    {
      "bufferView": 8,
      "componentType": 5126,
      "count": 883,
      "max": [
        62.479644775390625,
        181.18321228027344,
        94.1937026977539
      ],
      "min": [
        -48.484378814697266,
        -5.030011177062988,
        -170.9571075439453
      ],
      "name": "positions",
      "type": "VEC3"
    },
    {
      "bufferView": 9,
      "componentType": 5125,
      "count": 2937,
      "name": "pos_index",
      "type": "SCALAR"
    },
    {
      "bufferView": 10,
      "componentType": 5126,
      "count": 883,
      "name": "normals",
      "type": "VEC3"
    },
    {
      "bufferView": 11,
      "componentType": 5126,
      "count": 883,
      "name": "uvs",
      "type": "VEC2"
    },
    {
      "bufferView": 12,
      "componentType": 5126,
      "count": 623,
      "max": [
        33.17523193359375,
        183.6857147216797,
        43.899009704589844
      ],
      "min": [
        -1.961401104927063,
        150.4483184814453,
        10.779934883117676
      ],
      "name": "positions",
      "type": "VEC3"
    },
    {
      "bufferView": 13,
      "componentType": 5125,
      "count": 2994,
      "name": "pos_index",
      "type": "SCALAR"
    },
    {
      "bufferView": 14,
      "componentType": 5126,
      "count": 623,
      "name": "normals",
      "type": "VEC3"
    },
    {
      "bufferView": 15,
      "componentType": 5126,
      "count": 623,
      "name": "uvs",
      "type": "VEC2"
    }
  ],
  "asset": {
    "version": "2.0"
  },
  "bufferViews": [
    {
      "buffer": 0,
      "byteLength": 7320,
      "name": "positions",
      "target": 34962
    },
    {
      "buffer": 1,
      "byteLength": 12000,
      "name": "pos_index",
      "target": 34963
    },
    {
      "buffer": 2,
      "byteLength": 7320,
      "name": "normals",
      "target": 34962
    },
    {
      "buffer": 3,
      "byteLength": 4880,
      "name": "uvs",
      "target": 34962
    },
    {
      "buffer": 4,
      "byteLength": 7704,
      "name": "positions",
      "target": 34962
    },
    {
      "buffer": 5,
      "byteLength": 12000,
      "name": "pos_index",
      "target": 34963
    },
    {
      "buffer": 6,
      "byteLength": 7704,
      "name": "normals",
      "target": 34962
    },
    {
      "buffer": 7,
      "byteLength": 5136,
      "name": "uvs",
      "target": 34962
    },
    {
      "buffer": 8,
      "byteLength": 10596,
      "name": "positions",
      "target": 34962
    },
    {
      "buffer": 9,
      "byteLength": 11748,
      "name": "pos_index",
      "target": 34963
    },
    {
      "buffer": 10,
      "byteLength": 10596,
      "name": "normals",
      "target": 34962
    },
    {
      "buffer": 11,
      "byteLength": 7064,
      "name": "uvs",
      "target": 34962
    },
    {
      "buffer": 12,
      "byteLength": 7476,
      "name": "positions",
      "target": 34962
    },
    {
      "buffer": 13,
      "byteLength": 11976,
      "name": "pos_index",
      "target": 34963
    },
    {
      "buffer": 14,
      "byteLength": 7476,
      "name": "normals",
      "target": 34962
    },
    {
      "buffer": 15,
      "byteLength": 4984,
      "name": "uvs",
      "target": 34962
    }
  ],
  "buffers": [
    {
      "byteLength": 7320,
      "name": "positions",
      "uri": "data:application/octet-stream;base64,"
    },
    {
      "byteLength": 12000,
      "name": "pos_index",
      "uri": "data:application/octet-stream;base64,"
    },
    {
      "byteLength": 7320,
      "name": "normals",
      "uri": "data:application/octet-stream;base64,"
    },
    {
      "byteLength": 4880,
      "name": "uvs",
      "uri": "data:application/octet-stream;base64,"
    },
    {
      "byteLength": 7704,
      "name": "positions",
      "uri": "data:application/octet-stream;base64,"
    },
    {
      "byteLength": 12000,
      "name": "pos_index",
      "uri": "data:application/octet-stream;base64,"
    },
    {
      "byteLength": 7704,
      "name": "normals",
      "uri": "data:application/octet-stream;base64,"
    },
    {
      "byteLength": 5136,
      "name": "uvs",
      "uri": "data:application/octet-stream;base64,"
    },
    {
      "byteLength": 10596,
      "name": "positions",
      "uri": "data:application/octet-stream;base64,"
    },
    {
      "byteLength": 11748,
      "name": "pos_index",
      "uri": "data:application/octet-stream;base64,"
    },
    {
      "byteLength": 10596,
      "name": "normals",
      "uri": "data:application/octet-stream;base64,"
    },
    {
      "byteLength": 7064,
      "name": "uvs",
      "uri": "data:application/octet-stream;base64,"
    },
    {
      "byteLength": 7476,
      "name": "positions",
      "uri": "data:application/octet-stream;base64,"
    },
    {
      "byteLength": 11976,
      "name": "pos_index",
      "uri": "data:application/octet-stream;base64,"
    },
    {
      "byteLength": 7476,
      "name": "normals",
      "uri": "data:application/octet-stream;base64,"
    },
    {
      "byteLength": 4984,
      "name": "uvs",
      "uri": "data:application/octet-stream;base64,"
    }
  ],
  "extensionsUsed": [
    "KHR_materials_transmission"
  ],
  "images": [
    {
      "uri": "model_0_color.png"
    },
    {
      "uri": "model_0_metallicRoughness.png"
    },
    {
      "uri": "model_0_transmittance.png"
    },
    {
      "uri": "model_1_color.png"
    },
    {
      "uri": "model_1_metallicRoughness.png"
    },
    {
      "uri": "model_1_transmittance.png"
    },
    {
      "uri": "model_2_color.png"
    },
    {
      "uri": "model_2_metallicRoughness.png"
    },
    {
      "uri": "model_2_transmittance.png"
    },
    {
      "uri": "model_3_color.png"
    },
    {
      "uri": "model_3_metallicRoughness.png"
    },
    {
      "uri": "model_3_transmittance.png"
    }
  ],
  "materials": [
    {
      "doubleSided": true,
      "extensions": {
        "KHR_materials_transmission": {
          "transmissionFactor": 1.0,
          "transmissionTexture": {
            "index": 2
          }
        }
      },
      "name": "Area (3)",
      "pbrMetallicRoughness": {
        "baseColorTexture": {
          "index": 0
        },
        "metallicRoughnessTexture": {
          "index": 1
        }
      }
    },
    {
      "doubleSided": true,
      "extensions": {
        "KHR_materials_transmission": {
          "transmissionFactor": 1.0,
          "transmissionTexture": {
            "index": 5
          }
        }
      },
      "name": "Area (4)",
      "pbrMetallicRoughness": {
        "baseColorTexture": {
          "index": 3
        },
        "metallicRoughnessTexture": {
          "index": 4
        }
      }
    },
    {
      "doubleSided": true,
      "extensions": {
        "KHR_materials_transmission": {
          "transmissionFactor": 1.0,
          "transmissionTexture": {
            "index": 8
          }
        }
      },
      "name": "donut",
      "pbrMetallicRoughness": {
        "baseColorTexture": {
          "index": 6
        },
        "metallicRoughnessTexture": {
          "index": 7
        }
      }
    },
    {
      "doubleSided": true,
      "extensions": {
        "KHR_materials_transmission": {
          "transmissionFactor": 1.0,
          "transmissionTexture": {
            "index": 11
          }
        }
      },
      "name": "Area (2)",
      "pbrMetallicRoughness": {
        "baseColorTexture": {
          "index": 9
        },
        "metallicRoughnessTexture": {
          "index": 10
        }
      }
    }
  ],
  "meshes": [
    {
      "name": "Area (3)",
      "primitives": [
        {
          "attributes": {
            "NORMAL": 2,
            "POSITION": 0,
            "TEXCOORD_0": 3
          },
          "indices": 1,
          "material": 0,
          "mode": 4
        }
      ]
    },
    {
      "name": "Area (4)",
      "primitives": [
        {
          "attributes": {
            "NORMAL": 6,
            "POSITION": 4,
            "TEXCOORD_0": 7
          },
          "indices": 5,
          "material": 1,
          "mode": 4
        }
      ]
    },
    {
      "name": "donut",
      "primitives": [
        {
          "attributes": {
            "NORMAL": 10,
            "POSITION": 8,
            "TEXCOORD_0": 11
          },
          "indices": 9,
          "material": 2,
          "mode": 4
        }
      ]
    },
    {
      "name": "Area (2)",
      "primitives": [
        {
          "attributes": {
            "NORMAL": 14,
            "POSITION": 12,
            "TEXCOORD_0": 15
          },
          "indices": 13,
          "material": 3,
          "mode": 4
        }
      ]
    }
  ],
  "nodes": [
    {
      "mesh": 0,
      "name": "Area (3)"
    },
    {
      "mesh": 1,
      "name": "Area (4)"
    },
    {
      "mesh": 2,
      "name": "donut"
    },
    {
      "mesh": 3,
      "name": "Area (2)"
    }
  ],
  "scene": 0,
  "scenes": [
    {
      "nodes": [
        0,
        1,
        2,
        3
      ]
    }
  ],
  "textures": [
    {
      "source": 0
    },
    {
      "source": 1
    },
    {
      "source": 2
    },
    {
      "source": 3
    },
    {
      "source": 4
    },
    {
      "source": 5
    },
    {
      "source": 6
    },
    {
      "source": 7
    },
    {
      "source": 8
    },
    {
      "source": 9
    },
    {
      "source": 10
    },
    {
      "source": 11
    }
  ]
}
