{
  "accessors": [
    {
      "bufferView": 0,
      "componentType": 5126,
      "count": 885,
      "max": [
        200.42877197265625,
        419.4072265625,
        -7.108608722686768
      ],
      "min": [
        -90.37173461914063,
        -3.53767466545105,
        -320.704833984375
      ],
      "name": "positions",
      "type": "VEC3"
    },
    {
      "bufferView": 1,
      "componentType": 5125,
      "count": 2976,
      "name": "pos_index",
      "type": "SCALAR"
    },
    {
      "bufferView": 2,
      "componentType": 5126,
      "count": 885,
      "name": "normals",
      "type": "VEC3"
    },
    {
      "bufferView": 3,
      "componentType": 5126,
      "count": 885,
      "name": "uvs",
      "type": "VEC2"
    },
    {
      "bufferView": 4,
      "componentType": 5126,
      "count": 791,
      "max": [
        168.3453369140625,
        270.19244384765625,
        -63.689876556396484
      ],
      "min": [
        -157.98135375976563,
        9.797346115112305,
        -284.2745361328125
      ],
      "name": "positions",
      "type": "VEC3"
    },
    {
      "bufferView": 5,
      "componentType": 5125,
      "count": 2994,
      "name": "pos_index",
      "type": "SCALAR"
    },
    {
      "bufferView": 6,
      "componentType": 5126,
      "count": 791,
      "name": "normals",
      "type": "VEC3"
    },
    {
      "bufferView": 7,
      "componentType": 5126,
      "count": 791,
      "name": "uvs",
      "type": "VEC2"
    }
  ],
  "asset": {
    "version": "2.0"
  },
  "bufferViews": [
    {
      "buffer": 0,
      "byteLength": 10620,
      "name": "positions",
      "target": 34962
    },
    {
      "buffer": 1,
      "byteLength": 11904,
      "name": "pos_index",
      "target": 34963
    },
    {
      "buffer": 2,
      "byteLength": 10620,
      "name": "normals",
      "target": 34962
    },
    {
      "buffer": 3,
      "byteLength": 7080,
      "name": "uvs",
      "target": 34962
    },
    {
      "buffer": 4,
      "byteLength": 9492,
      "name": "positions",
      "target": 34962
    },
    {
      "buffer": 5,
      "byteLength": 11976,
      "name": "pos_index",
      "target": 34963
    },
    {
      "buffer": 6,
      "byteLength": 9492,
      "name": "normals",
      "target": 34962
    },
    {
      "buffer": 7,
      "byteLength": 6328,
      "name": "uvs",
      "target": 34962
    }
  ],
  "buffers": [
    {
      "byteLength": 10620,
      "name": "positions",
      "uri": "data:application/octet-stream;base64,"
    },
    {
      "byteLength": 11904,
      "name": "pos_index",
      "uri": "data:application/octet-stream;base64,"
    },
    {
      "byteLength": 10620,
      "name": "normals",
      "uri": "data:application/octet-stream;base64,"
    },
    {
      "byteLength": 7080,
      "name": "uvs",
      "uri": "data:application/octet-stream;base64,"
    },
    {
      "byteLength": 9492,
      "name": "positions",
      "uri": "data:application/octet-stream;base64,"
    },
    {
      "byteLength": 11976,
      "name": "pos_index",
      "uri": "data:application/octet-stream;base64,"
    },
    {
      "byteLength": 9492,
      "name": "normals",
      "uri": "data:application/octet-stream;base64,"
    },
    {
      "byteLength": 6328,
      "name": "uvs",
      "uri": "data:application/octet-stream;base64,"
    }
  ],
  "extensionsUsed": [
    "KHR_materials_transmission"
  ],
  "images": [
    {
      "uri": "model_0_color.png"
    },
    {
      "uri": "model_0_metallicRoughness.png"
    },
    {
      "uri": "model_0_transmittance.png"
    },
    {
      "uri": "model_1_color.png"
    },
    {
      "uri": "model_1_metallicRoughness.png"
    },
    {
      "uri": "model_1_transmittance.png"
    }
  ],
  "materials": [
    {
      "doubleSided": true,
      "extensions": {
        "KHR_materials_transmission": {
          "transmissionFactor": 1.0,
          "transmissionTexture": {
            "index": 2
          }
        }
      },
      "name": "helix",
      "pbrMetallicRoughness": {
        "baseColorTexture": {
          "index": 0
        },
        "metallicRoughnessTexture": {
          "index": 1
        }
      }
    },
    {
      "doubleSided": true,
      "extensions": {
        "KHR_materials_transmission": {
          "transmissionFactor": 1.0,
          "transmissionTexture": {
            "index": 5
          }
        }
      },
      "name": "S",
      "pbrMetallicRoughness": {
        "baseColorTexture": {
          "index": 3
        },
        "metallicRoughnessTexture": {
          "index": 4
        }
      }
    }
  ],
  "meshes": [
    {
      "name": "helix",
      "primitives": [
        {
          "attributes": {
            "NORMAL": 2,
            "POSITION": 0,
            "TEXCOORD_0": 3
          },
          "indices": 1,
          "material": 0,
          "mode": 4
        }
      ]
    },
    {
      "name": "S",
      "primitives": [
        {
          "attributes": {
            "NORMAL": 6,
            "POSITION": 4,
            "TEXCOORD_0": 7
          },
          "indices": 5,
          "material": 1,
          "mode": 4
        }
      ]
    }
  ],
  "nodes": [
    {
      "mesh": 0,
      "name": "helix"
    },
    {
      "mesh": 1,
      "name": "S"
    }
  ],
  "scene": 0,
  "scenes": [
    {
      "nodes": [
        0,
        1
      ]
    }
  ],
  "textures": [
    {
      "source": 0
    },
    {
      "source": 1
    },
    {
      "source": 2
    },
    {
      "source": 3
    },
    {
      "source": 4
    },
    {
      "source": 5
    }
  ]
}
